<?xml version="1.0" encoding="UTF-8" standalone="no"?>
<!-- Created with Inkscape (http://www.inkscape.org/) -->

<svg
   xmlns:dc="http://purl.org/dc/elements/1.1/"
   xmlns:cc="http://creativecommons.org/ns#"
   xmlns:rdf="http://www.w3.org/1999/02/22-rdf-syntax-ns#"
   xmlns:svg="http://www.w3.org/2000/svg"
   xmlns="http://www.w3.org/2000/svg"
   xmlns:sodipodi="http://sodipodi.sourceforge.net/DTD/sodipodi-0.dtd"
   xmlns:inkscape="http://www.inkscape.org/namespaces/inkscape"
   width="400"
   height="200"
   viewBox="0 0 74.083333 37.041667"
   version="1.1"
   id="svg1011"
   inkscape:export-filename="/home/vilson/src/2aliens/logo/blank.png"
   inkscape:export-xdpi="96"
   inkscape:export-ydpi="96"
   sodipodi:docname="logo.svg"
   inkscape:version="0.92.3 (2405546, 2018-03-11)">
  <defs
     id="defs1005" />
  <sodipodi:namedview
     id="base"
     pagecolor="#ffffff"
     bordercolor="#666666"
     borderopacity="1.0"
     inkscape:pageopacity="1"
     inkscape:pageshadow="2"
     inkscape:zoom="2.3001424"
     inkscape:cx="233.41586"
     inkscape:cy="109.2004"
     inkscape:document-units="mm"
     inkscape:current-layer="layer1"
     showgrid="false"
     units="px"
     scale-x="0.7"
     inkscape:window-width="2560"
     inkscape:window-height="1046"
     inkscape:window-x="0"
     inkscape:window-y="34"
     inkscape:window-maximized="1" />
  <metadata
     id="metadata1008">
    <rdf:RDF>
      <cc:Work
         rdf:about="">
        <dc:format>image/svg+xml</dc:format>
        <dc:type
           rdf:resource="http://purl.org/dc/dcmitype/StillImage" />
        <dc:title></dc:title>
      </cc:Work>
    </rdf:RDF>
  </metadata>
  <g
     inkscape:label="Layer 1"
     inkscape:groupmode="layer"
     id="layer1"
     transform="translate(0,-174.23331)">
    <path
       style="fill:#000000;stroke-width:0.02618384"
       d="m 12.837565,207.66183 c -1.84412,0.0502 -0.53486,-1.91993 -0.45279,-2.93073 0.30948,-1.03151 0.61869,-2.11873 1.54215,-2.8287 1.76658,-1.05251 3.87357,-0.67191 5.80767,-0.91261 1.05177,-0.18396 1.96826,-1.15167 1.61972,-2.2905 0.0573,-1.44307 -1.46415,-1.99822 -2.36108,-2.8416 -1.57351,-1.19184 -2.81956,-2.7805 -4.00316,-4.36426 -1.11475,-1.47918 -0.853,-3.39131 -0.88798,-5.12606 -0.10536,-1.49653 0.45645,-3.15185 1.46511,-4.28823 1.32505,-1.40193 2.77537,-2.95601 4.64629,-3.6247 1.41233,-0.25819 2.84539,-0.67123 4.28607,-0.6214 1.66047,-0.0635 3.35908,0.27182 4.97019,0.64424 1.55727,0.61795 3.39852,0.99163 4.33108,2.53453 1.90026,1.43482 1.60409,4.07359 0.95693,6.08274 -0.6955,2.70085 -2.65567,4.85102 -4.38878,6.9649 -0.89377,0.91148 -1.64183,2.00747 -2.18439,3.16372 -1.40337,1.15429 -0.28589,2.6139 0.92554,3.03888 1.52808,0.83303 3.2388,0.25958 4.83734,0.0317 2.15612,-0.004 2.52438,3.68074 2.36708,5.32275 0.42341,1.86011 -1.53008,1.15255 -0.84596,-0.32201 0.30371,-1.41913 -1.18114,-3.75947 -2.52943,-3.4719 -1.45042,0.13372 -3.04997,0.70447 -4.44585,0.276 -0.65985,-0.97912 -2.11898,-1.2157 -2.4405,-2.44912 -0.20874,-1.40085 0.96818,-2.61032 1.57877,-3.81877 1.0351,-1.33653 2.44157,-2.36804 3.24712,-3.90241 1.64749,-2.13615 3.55386,-4.4286 3.54843,-7.27852 0.089,-1.48196 -0.65825,-3.01405 -1.88073,-3.8666 -1.06643,-0.76708 -2.54601,-0.90131 -3.73358,-1.55694 -1.69581,-0.58537 -3.49881,-0.54766 -5.27729,-0.61675 -1.33485,0.0245 -2.6294,0.58509 -3.89776,1.04777 -1.62575,0.72953 -2.83363,2.11612 -3.98259,3.41827 -1.15195,1.94496 -0.8043,4.34696 -0.59004,6.49332 0.58652,2.26288 2.51329,3.83296 4.09375,5.43303 1.28813,1.27123 3.82787,2.06979 3.5162,4.27384 -0.48079,1.40082 -1.74395,2.79669 -3.32644,2.64776 -1.41484,0.31333 -3.05518,-0.27889 -4.34542,0.59634 -0.85604,1.49762 -1.78253,3.05463 -1.49142,4.85342 -0.2566,0.0395 -0.3911,0.39992 -0.67425,0.28853 z m 25.80257,-0.58497 c -0.60948,-1.3362 -0.0895,-3.29157 0.9414,-4.39076 1.77462,-1.82979 4.55008,-0.56202 6.70945,-1.40922 2.05158,-0.078 1.48647,-2.80926 -0.0711,-3.32496 -1.28973,-0.78636 -2.17408,-2.059 -2.61045,-3.49598 -0.98681,-1.98065 -1.60607,-4.12653 -1.8753,-6.32246 -0.64856,-3.12905 1.32939,-6.18374 3.93315,-7.75394 1.96986,-1.81944 4.85982,-1.94851 7.39219,-1.96427 1.7365,-0.01 3.21112,0.88007 4.65231,1.692 1.05875,0.72984 2.35382,1.29388 2.70181,2.66164 1.16462,2.67595 0.6744,5.84818 -0.49394,8.43417 -1.36508,2.04723 -2.7076,4.16096 -4.64364,5.74281 -0.78298,0.89766 -2.6566,2.95173 -0.4546,3.46149 1.95126,0.0139 3.90492,-0.53428 5.79162,-0.54122 2.2314,0.51237 1.10794,4.65628 1.61268,6.27745 -0.40767,1.30142 -1.49695,-0.81039 -0.89016,-1.54519 -0.0419,-2.14251 -0.42865,-4.61673 -2.28839,-3.71471 -1.70515,-0.21648 -3.39794,0.77619 -5.04292,0.1222 -1.57751,-0.7172 -1.19054,-3.0097 0.1619,-3.80661 1.21834,-1.46801 2.42354,-2.96989 3.77008,-4.2827 1.7493,-2.21917 2.65351,-5.07485 2.4331,-7.88045 -0.46251,-1.38669 -0.53091,-3.25105 -2.17581,-3.79347 -1.67893,-0.75807 -3.01119,-2.31125 -5.0162,-2.17574 -2.44083,-0.0278 -5.19925,0.12339 -7.08919,1.86879 -1.56762,1.05426 -2.60251,2.67312 -3.48743,4.29085 -0.70073,1.81738 -0.0881,3.83989 0.43038,5.62993 0.64213,1.79274 1.15982,3.75651 2.61838,5.09182 0.92578,1.05856 2.02844,1.99561 2.89231,3.08276 0.60699,1.50014 -0.89256,3.32389 -2.48126,3.17515 -1.50246,0.35233 -3.20469,0.0195 -4.56587,0.71688 -1.66207,0.28005 -2.57704,2.20979 -2.16773,3.77868 -0.12182,0.25983 -0.35516,0.55576 -0.6868,0.37506 z m -14.09296,-11.67331 c -1.26034,-0.73171 1.46839,-1.18176 1.40901,-2.24245 1.37032,0.33138 -0.5857,2.42344 -1.40901,2.24245 z m 27.21623,0.44212 c -0.51435,-0.76641 1.64823,-0.38217 2.60252,-2.03375 0.0976,0.87761 -1.1096,1.99685 -2.60252,2.03375 z m -29.82412,-5.1229 c -1.6999,0.1628 -2.10875,-1.76939 -2.92999,-2.84583 -0.43548,-1.12625 -0.62439,-2.70222 0.26817,-3.60348 1.41509,-0.42845 2.63906,0.97541 3.42584,1.9688 0.78981,1.23951 0.73926,3.11089 1.11383,4.06788 -0.44755,0.43086 -1.29452,0.36306 -1.87785,0.41263 z m 4.44302,-0.37691 c -0.92178,-0.83114 0.15084,-2.07986 0.39351,-3.12039 0.52495,-1.4922 1.94351,-2.44386 3.36129,-2.94327 1.38118,1.1286 1.01776,3.47999 -0.17167,4.64071 -0.8628,1.07196 -2.33118,1.27298 -3.58313,1.42295 z m 21.53894,0.79597 c -1.54991,-0.27254 -2.28378,-1.93812 -2.90867,-3.21392 -1.12525,-1.8008 0.94857,-3.45106 2.29397,-1.72922 1.53728,0.90439 2.55492,2.45646 2.95217,4.18567 -0.49265,0.71359 -1.56553,0.72889 -2.33747,0.75747 z m 4.96093,-0.50976 c -0.95797,-1.05124 0.20552,-2.77081 0.77485,-3.88967 0.7212,-1.00957 2.41522,-2.97834 3.56719,-1.88283 0.96833,1.69215 -0.63234,3.34679 -1.60617,4.62145 -0.5492,0.84561 -1.83969,1.35246 -2.73587,1.15105 z m 1.00637,-2.99047 c -0.0458,0.0262 0.0425,0.14419 0,0 z"
       id="path1108"
       inkscape:connector-curvature="0"
       sodipodi:nodetypes="ccccccccccccccccccccccccccccccccccccccccccccccccccccccccccccccccccccccccccccccccccccccccccccccccccc"
       inkscape:export-xdpi="96"
       inkscape:export-ydpi="96" />
    <text
       xml:space="preserve"
       style="font-style:normal;font-variant:normal;font-weight:normal;font-stretch:normal;font-size:18.74348259px;line-height:1.25;font-family:'DroidSansMono Nerd Font';-inkscape-font-specification:'DroidSansMono Nerd Font';letter-spacing:0px;word-spacing:0px;fill:#000000;fill-opacity:1;stroke:none;stroke-width:0.46858704"
       x="208.09885"
       y="220.28792"
       id="text1127" />
  </g>
</svg>
